<?xml version="1.0" encoding="utf-8"?>
<!-- Generator: Adobe Illustrator 25.0.1, SVG Export Plug-In . SVG Version: 6.00 Build 0)  -->
<svg version="1.1" id="Ebene_1" xmlns="http://www.w3.org/2000/svg" xmlns:xlink="http://www.w3.org/1999/xlink" x="0px" y="0px"
	 viewBox="0 0 152 33" style="enable-background:new 0 0 152 33;" xml:space="preserve">
<style type="text/css">
	.st0{fill-rule:evenodd;clip-rule:evenodd;}
</style>
<path class="st0" d="M106.3,25.7c1.4,0,2.8-0.3,4.2-0.9c1.4-0.6,2.6-1.6,3.8-2.8l4.2,5.3c-1.7,1.7-3.7,3.1-6.1,4.2
	c-2.4,1-4.7,1.5-7.1,1.5c-2.1,0-4.2-0.4-6.1-1.2c-1.9-0.8-3.5-1.9-4.9-3.2c-1.4-1.4-2.4-3-3.3-4.8c-0.8-1.9-1.2-3.9-1.2-6
	c0-2.4,0.5-4.7,1.4-6.9c0.9-2.2,2.2-4,3.8-5.6c1.6-1.6,3.5-2.8,5.6-3.7c2.2-0.9,4.5-1.4,6.9-1.4c3,0,5.6,0.6,7.8,1.7
	c2.3,1.2,4.1,2.8,5.4,5l-5.9,5c-0.8-1.5-1.9-2.6-3.3-3.4c-1.3-0.8-2.8-1.2-4.5-1.2c-1.3,0-2.5,0.3-3.7,0.8c-1.1,0.5-2.1,1.2-3,2.1
	c-0.8,0.9-1.5,2-2,3.2c-0.5,1.2-0.7,2.5-0.7,3.9c0,2.4,0.8,4.4,2.4,6C101.9,24.8,103.9,25.7,106.3,25.7z M0,7.3l1.5-7h27.9l-1.5,7
	h-8.8l0,0h-5.7H13l-0.1,0.5l-5,24.6H3L8.3,7.3H0z M9.1,32.3H14l4.9-23.8H14L9.1,32.3z M26.1,32.3l6.7-32h14.8c3,0,5.4,0.9,7.2,2.6
	c1.9,1.7,2.8,3.9,2.8,6.7c0,2.4-0.8,4.6-2.3,6.4c-1.5,1.9-3.4,3.2-5.8,3.9l4.8,12.3h-8.1l-4.1-11.8h-6l-2.5,11.8H26.1z M46.3,7h-7.2
	l-1.5,7.1h7.9c1.2,0,2.3-0.4,3.1-1.1c0.8-0.7,1.3-1.6,1.3-2.7c0-1-0.3-1.8-1-2.4C48.2,7.3,47.3,7,46.3,7z M73.7,0.3l-19.3,32h8.3
	l4.4-7.7h12.1l1.3,7.7h7.9l-6-32H73.7z M78.3,18.3h-7.6l5.9-10.2L78.3,18.3z M126.5,0.3l-6.7,32h24.7l1.4-6.8h-17.1l1.3-6h11.1
	l1.4-6.6h-11.1l1.2-5.8h16.9l1.4-6.8H126.5z"/>
</svg>
